<svg xmlns="http://www.w3.org/2000/svg" width="256" height="256"><path fill-opacity=".016" d="M0 128.004v128.004l128.25-.254 128.25-.254.254-127.75L257.008 0H0v128.004m.485.496c0 70.4.119 99.053.265 63.672.146-35.38.146-92.98 0-128C.604 29.153.485 58.1.485 128.5" fill="#1976D2" fill-rule="evenodd"/><path fill-opacity=".167" d="M31.5 1.392C16.85 6.075 5.005 18.398 1.119 33c-.9 3.38-1.126 27.642-.908 97.5l.289 93 3.086 6.5c4.526 9.532 11.994 17.189 21.204 21.741l7.606 3.759H223.5l6.759-3.201c9.109-4.315 16.87-11.834 21.247-20.585 1.922-3.84 3.494-7.796 3.494-8.789 0-.994.45-2.085 1-2.425.655-.405 1-32.697 1-93.618 0-61.745-.336-92.792-1-92.382-.55.34-1-.248-1-1.307 0-1.058-1.572-5.067-3.494-8.907-4.377-8.751-12.138-16.27-21.247-20.585L223.5.5l-94-.193c-74-.153-94.851.078-98 1.085M.48 128c0 51.425.121 72.462.27 46.75.148-25.713.148-67.788 0-93.5C.601 55.537.48 76.575.48 128" fill="#1976D2" fill-rule="evenodd"/><path fill-opacity=".129" d="M32.184 1.562C17.177 5.601 4.27 19.296.978 34.676.299 37.85.04 70.801.223 131c.275 90.918.291 91.533 2.419 96.719 5.008 12.202 16.085 22.572 28.059 26.27 6.318 1.952 9.174 2.011 97.223 2.011 98.9 0 95.805.167 105.951-5.701 10.074-5.825 16.552-14.127 20.634-26.441l2.439-7.358.026-90.25c.014-49.638-.339-90.25-.785-90.25s-1.385-2.241-2.087-4.98C250.661 17.596 237.9 5.291 223.54 1.552 214.97-.68 40.48-.67 32.184 1.562M.479 128c0 50.325.122 70.913.271 45.75.148-25.162.148-66.337 0-91.5C.601 57.088.479 77.675.479 128m102.602-51.446c-6.472 1.781-10.509 4.158-14.657 8.63-2.603 2.806-8.398 10.616-10.675 14.388-.356.589 1.468.029 4.052-1.246 8.887-4.383 21.459-4.055 27.526.717 1.423 1.119 13.6 18.636 27.058 38.926 13.459 20.29 25.573 37.613 26.92 38.495 4.239 2.777 8.762 3.55 24.195 4.132 13.938.525 15.228.421 18.215-1.479 4.855-3.088 8.661-11.251 8.729-18.721l.056-6.104-20.5-30.855c-21.63-32.555-28.019-40.307-37.216-45.153-5.258-2.77-5.39-2.785-26.784-3.003-16.516-.168-22.756.127-26.919 1.273" fill="#1976D2" fill-rule="evenodd"/><path fill-opacity=".764" d="M34.951 1.363C17.906 5.034 4.278 19.15 1.093 36.434-.413 44.611-.425 211.297 1.08 219.566c3.211 17.633 16.838 31.49 34.719 35.304 3.713.792 31.406 1.126 92.5 1.115 94.933-.016 94.425.012 104.863-5.67 10.134-5.515 19.021-17.573 22.041-29.906C256.655 214.48 257.564 39 256.142 39c-.483 0-1.116-1.77-1.406-3.932-2.083-15.527-17.924-30.834-35.17-33.984-8.705-1.59-177.119-1.336-184.615.279M.479 128c0 48.675.122 68.588.271 44.25.149-24.337.149-64.162 0-88.5C.601 59.413.479 79.325.479 128m99.726-51.106c-2.912 1.006-6.944 3.164-8.96 4.795-3.5 2.833-19.177 24.431-39.933 55.014-8.781 12.938-9.681 14.7-10.102 19.776-.796 9.605 5.018 19.629 13.422 23.141 4.497 1.879 27.197 1.896 31.678.024 4.966-2.075 10.906-9.44 26.19-32.476 7.7-11.605 14.388-20.986 14.862-20.847.474.14 8.349 11.487 17.5 25.216 14.387 21.585 17.179 25.225 20.638 26.9 3.343 1.619 6.809 2.006 21.09 2.36l17.09.423 3.711-3.259c4.455-3.911 6.004-6.754 7.479-13.721.863-4.079.823-6.1-.181-9-.712-2.057-10.338-17.258-21.391-33.781-21.168-31.643-27.997-39.714-37.492-44.311-4.151-2.009-5.917-2.146-27.372-2.115-19.565.027-23.712.301-28.229 1.861" fill="#1976D2" fill-rule="evenodd"/></svg>